<?xml version="1.0"?>
<svg xmlns="http://www.w3.org/2000/svg" id="Capa_1" enable-background="new 0 0 512 512" height="512px" viewBox="0 0 512 512" width="512px" class=""><g><g><g><path d="m5.506 419.781 217.394-367.414c14.954-25.274 51.247-25.274 66.201 0l217.394 367.414c15.334 25.916-3.178 58.806-33.1 58.806h-434.789c-29.922.001-48.434-32.889-33.1-58.806z" fill="#fd4755" data-original="#FD4755" class="" data-old_color="#fd4755" style="fill:#FFB229"/><g><path d="m180.893 478.588h292.5c29.922 0 48.435-32.89 33.1-58.806l-158.836-268.449c6.291 26.836 9.325 57.2 6.028 90.319-15.599 156.693-158.311 229.751-167.557 234.288-1.776.92-3.515 1.795-5.235 2.648z" fill="#fb2b3a" data-original="#FB2B3A" class="active-path" style="fill:#A1830A" data-old_color="#fb2b3a"/><path d="m38.6 447.75c-6.328-.218-9.846-6.086-6.502-12.163l217.393-367.414c3.359-5.265 9.738-5.196 13.005 0l217.393 367.413c3.358 6.1-.131 11.942-6.502 12.163h-434.787z" fill="#fed402" data-original="#FED402" class="" style="fill:#FED402"/><path d="m354.851 224.261c-.203 5.709-.58 11.504-1.166 17.391-10.375 104.221-76.976 171.429-123.145 206.098h242.847c6.371-.221 9.86-6.063 6.502-12.163z" fill="#f7bc09" data-original="#F7BC09" class=""/></g></g><path d="m241.417 314.411h29.167v107.413h-29.167z" fill="#554e56" data-original="#554E56"/><path d="m261.337 421.825h9.247v-9.046c-3.088 3.136-6.176 6.15-9.247 9.046z" fill="#433f43" data-original="#433F43"/><path d="m298.962 447.75c0-14.318-13.475-25.925-30.098-25.925h-25.728c-16.623 0-30.098 11.607-30.098 25.925z" fill="#685e68" data-original="#685E68" class="" style="fill:#685E68"/><path d="m268.864 421.825h-7.528c-10.69 10.077-21.186 18.708-30.796 25.925h68.422c0-14.318-13.475-25.925-30.098-25.925z" fill="#554e56" data-original="#554E56"/><path d="m311.712 218.429v59.153c0 29.803-24.158 53.971-53.971 53.971h-3.482c-29.813 0-53.971-24.168-53.971-53.971v-59.153c0-6.47 5.243-11.713 11.703-11.713h88.018c6.46 0 11.703 5.244 11.703 11.713z" fill="#685e68" data-original="#685E68" class="" style="fill:#685E68"/><g><path d="m255.351 240.825-2.442 20.707c-.464 3.935-3.801 6.82-7.664 6.82-.299 0-.598-.01-.906-.052-4.244-.494-7.273-4.337-6.769-8.571l1.855-15.772-15.236-9.2c-2.977-1.792-4.389-5.367-3.431-8.726l5.491-19.316h15.762c0 .7-.103 1.411-.299 2.112l-4.481 15.762 14.443 8.715c2.595 1.577 4.027 4.513 3.677 7.521z" fill="#433f43" data-original="#433F43"/></g></g></g> </svg>
