<svg width="511.99908" height="511" xmlns="http://www.w3.org/2000/svg">

 <g>
  <title>background</title>
  <rect fill="none" id="canvas_background" height="402" width="582" y="-1" x="-1"/>
 </g>
 <g>
  <title>Layer 1</title>
  <path id="svg_1" fill="#ffc66c" d="m73.19922,343.12891l156.14062,85.73828l0,-205.27735l-156.14062,-85.73828l0,205.27735zm0,0"/>
  <path id="svg_2" fill="#ffb954" d="m423.25391,122.44531l-152.02344,83.47657l-4.38672,-2.40625l0,212.42187l-0.11328,0.06641l0.03906,0.05078l156.48438,-85.92578l0,-207.6836zm0,0"/>
  <path id="svg_3" fill="#feda9b" d="m261.23047,30.50391l-191.82422,105.33203l159.81641,87.7539l191.82422,-105.32812l-159.81641,-87.75781zm0,0"/>
  <path id="svg_4" fill="#fff" d="m349.89063,77.36719l-193.72266,106.47265l-47.92188,-27.04296l193.72266,-106.47657l47.92188,27.04688zm0,0"/>
  <path id="svg_5" fill="#fff" d="m156.16797,183.83984l0,67.49219l-47.92188,-26.70703l0,-67.82812l47.92188,27.04296zm0,0"/>
  <path id="svg_6" d="m433.25391,330.12891l0,-34.08203c0,-5.52344 -4.48047,-10 -10,-10c-5.52344,0 -10.00391,4.47656 -10.00391,10l0,28.16406l-174.02734,95.55859l0,-190.26562l174.02734,-95.5586l0,86.08985c0,5.52343 4.48047,10 10.00391,10c5.51953,0 10,-4.47657 10,-10l0,-102.99219c0,-3.64844 -1.98828,-7.00781 -5.1875,-8.76563l-194.03125,-106.54296c-2.9961,-1.64454 -6.62891,-1.64454 -9.62891,0l-194.02734,106.54296c-3.19922,1.75782 -5.1875,5.11719 -5.1875,8.76563l0,75.65234c0,5.52344 4.47656,10 10,10c5.52343,0 10.0039,-4.47656 10.0039,-10l0,-58.75l53.05078,29.13282l0,61.54687c0,3.62891 1.96485,6.97266 5.13282,8.73828l47.92187,26.70703c1.51563,0.84375 3.19141,1.26563 4.86719,1.26563c1.75391,0 3.50391,-0.46094 5.06641,-1.37891c3.05859,-1.79687 4.9375,-5.07812 4.9375,-8.62109l0,-50.96094l53.04687,29.12891l0,190.26562l-174.02344,-95.55859l0,-52.83594c0,-5.52344 -4.48047,-10 -10.0039,-10c-5.52344,0 -10,4.47656 -10,10l0,58.75391c0,3.64843 1.98828,7.00781 5.1875,8.76562l194.02734,106.54297c1.5,0.82422 3.16016,1.23438 4.81641,1.23438s3.3125,-0.41016 4.8125,-1.23438l194.03125,-106.54297c3.19922,-1.75781 5.1875,-5.11719 5.1875,-8.76562zm-128.06641,-266.50391l24.14844,13.625l-172.83594,94.99609l-19.55859,-10.74218l-8.14063,-4.59375l173.0586,-95.11719l3.32812,1.83203zm45.25781,24.84766l52.02735,28.57031l-173.25,95.13281l-51.94532,-28.52344l173.16797,-95.17968zm-121.22265,-66.5625l51.85937,28.47656l-173.16797,95.17969l-51.9414,-28.52344l173.25,-95.13281zm-110.97266,196.83984l0,-44.69141l8.95703,4.92188l18.96094,10.69922l0,44.6289l-27.91797,-15.55859zm0,0"/>
  <path id="svg_7" d="m423.25781,247.04297c-2.63281,0 -5.21093,1.05859 -7.08203,2.92969c-1.85937,1.85937 -2.92187,4.42968 -2.92187,7.07031c0,2.63281 1.0625,5.21094 2.92187,7.07031c1.8711,1.86328 4.44141,2.9336 7.08203,2.9336c2.62891,0 5.19922,-1.07032 7.07032,-2.9336c1.85937,-1.85937 2.92968,-4.4375 2.92968,-7.07031c0,-2.62891 -1.07031,-5.21094 -2.92968,-7.07031c-1.8711,-1.8711 -4.44141,-2.92969 -7.07032,-2.92969zm0,0"/>
  <path id="svg_8" d="m42.26953,238.60938c1.85938,-1.85938 2.92969,-4.4375 2.92969,-7.07032c0,-2.6289 -1.07031,-5.21093 -2.92969,-7.07031c-1.87109,-1.85937 -4.4414,-2.92969 -7.07031,-2.92969c-2.64063,0 -5.21094,1.07032 -7.08203,2.92969c-1.85938,1.85938 -2.92188,4.44141 -2.92188,7.07031c0,2.63282 1.0625,5.21094 2.92188,7.07032c1.87109,1.86328 4.4414,2.93359 7.08203,2.93359c2.62891,0 5.19922,-1.07031 7.07031,-2.93359zm0,0"/>
  <path id="svg_11" d="m200.30859,457.68359c-1.59765,-5.28906 -7.17968,-8.28125 -12.46484,-6.6875c-4.30469,1.30079 -7.08594,5.23829 -7.11328,9.51172l-145.97656,-80.15625c4.19531,-2.2539 6.30468,-7.2539 4.75781,-11.93359c-1.73047,-5.24609 -7.39063,-8.09375 -12.62891,-6.36328l-20.01953,6.60547c-0.05469,0.01953 -0.08984,0.04297 -0.13281,0.0664c-2.26172,0.78125 -4.25391,2.36328 -5.5,4.625c-1.38281,2.51953 -1.55859,5.36719 -0.73828,7.89844c0.0039,0.01563 0.0039,0.02734 0.00781,0.04297l6.60547,20.01562c1.39062,4.20704 5.29687,6.8711 9.49609,6.8711c1.03907,0 2.09766,-0.16406 3.13672,-0.50781c4.03516,-1.33204 6.64063,-4.98438 6.84766,-8.98438l144.92969,79.58203c-3.84766,2.29688 -5.80079,6.98047 -4.44922,11.46485c1.30468,4.32421 5.27734,7.11328 9.57031,7.11328c0.95703,0 1.92969,-0.13672 2.89453,-0.42969l19.88672,-6c0.01172,-0.00391 0.02344,-0.00781 0.03516,-0.01172l0.25781,-0.07813c0.02344,-0.0039 0.03906,-0.01953 0.05859,-0.02734c2.39844,-0.73828 4.52344,-2.35937 5.82813,-4.73047c1.35937,-2.47265 1.55468,-5.26953 0.78125,-7.76953l-6.07032,-20.11719zm0,0"/>
 </g>
</svg>