<svg width="256" height="256" xmlns="http://www.w3.org/2000/svg">
 <style type="text/css">.st0{display:none;}
	.st1{display:inline;}
	.st2{fill:none;stroke:#6B1D1D;stroke-width:0.5;stroke-miterlimit:10;}
	.st3{fill:#3A312A;}
	.st4{fill:#F16C7A;}
	.st5{fill:#D7E057;}
	.st6{fill:#87796F;}
	.st7{fill:#CE4E61;}
	.st8{fill-rule:evenodd;clip-rule:evenodd;fill:#D7E057;}
	.st9{fill-rule:evenodd;clip-rule:evenodd;fill:#FCE8CB;}
	.st10{fill:#B9BC39;}
	.st11{fill:#8AC6DD;}
	.st12{fill:#FCE8CB;}
	.st13{fill:#CCAE8B;}
	.st14{fill:#6B5B51;}
	.st15{fill:#68A8BC;}
	.st16{fill:#F5978A;}
	.st17{fill-rule:evenodd;clip-rule:evenodd;fill:#F16C7A;}
	.st18{fill-rule:evenodd;clip-rule:evenodd;fill:#8AC6DD;}</style>

 <g>
  <title>background</title>
  <rect fill="none" id="canvas_background" height="402" width="582" y="-1" x="-1"/>
 </g>
 <g>
  <title>Layer 1</title>
  <g class="st0" id="Layer_1">
   <g id="svg_1" class="st1">
    <g id="svg_2">
     <line id="svg_3" y2="5.829" x2="256" y1="5.829" x1="0" class="st2"/>
     <line id="svg_4" y2="17.56" x2="256" y1="17.56" x1="0" class="st2"/>
     <line id="svg_5" y2="29.29" x2="256" y1="29.29" x1="0" class="st2"/>
     <line id="svg_6" y2="41.021" x2="256" y1="41.021" x1="0" class="st2"/>
     <line id="svg_7" y2="52.751" x2="256" y1="52.751" x1="0" class="st2"/>
     <line id="svg_8" y2="64.482" x2="256" y1="64.482" x1="0" class="st2"/>
     <line id="svg_9" y2="76.213" x2="256" y1="76.213" x1="0" class="st2"/>
     <line id="svg_10" y2="87.943" x2="256" y1="87.943" x1="0" class="st2"/>
     <line id="svg_11" y2="99.674" x2="256" y1="99.674" x1="0" class="st2"/>
     <line id="svg_12" y2="111.404" x2="256" y1="111.404" x1="0" class="st2"/>
     <line id="svg_13" y2="123.135" x2="256" y1="123.135" x1="0" class="st2"/>
     <line id="svg_14" y2="134.865" x2="256" y1="134.865" x1="0" class="st2"/>
     <line id="svg_15" y2="146.596" x2="256" y1="146.596" x1="0" class="st2"/>
     <line id="svg_16" y2="158.326" x2="256" y1="158.326" x1="0" class="st2"/>
     <line id="svg_17" y2="170.057" x2="256" y1="170.057" x1="0" class="st2"/>
     <line id="svg_18" y2="181.788" x2="256" y1="181.788" x1="0" class="st2"/>
     <line id="svg_19" y2="193.518" x2="256" y1="193.518" x1="0" class="st2"/>
     <line id="svg_20" y2="205.249" x2="256" y1="205.249" x1="0" class="st2"/>
     <line id="svg_21" y2="216.979" x2="256" y1="216.979" x1="0" class="st2"/>
     <line id="svg_22" y2="228.71" x2="256" y1="228.71" x1="0" class="st2"/>
     <line id="svg_23" y2="240.44" x2="256" y1="240.44" x1="0" class="st2"/>
     <line id="svg_24" y2="252.171" x2="256" y1="252.171" x1="0" class="st2"/>
    </g>
    <g id="svg_25">
     <line id="svg_26" y2="257" x2="251.171" y1="1" x1="251.171" class="st2"/>
     <line id="svg_27" y2="257" x2="239.44" y1="1" x1="239.44" class="st2"/>
     <line id="svg_28" y2="257" x2="227.71" y1="1" x1="227.71" class="st2"/>
     <line id="svg_29" y2="257" x2="215.979" y1="1" x1="215.979" class="st2"/>
     <line id="svg_30" y2="257" x2="204.249" y1="1" x1="204.249" class="st2"/>
     <line id="svg_31" y2="257" x2="192.518" y1="1" x1="192.518" class="st2"/>
     <line id="svg_32" y2="257" x2="180.788" y1="1" x1="180.788" class="st2"/>
     <line id="svg_33" y2="257" x2="169.057" y1="1" x1="169.057" class="st2"/>
     <line id="svg_34" y2="257" x2="157.326" y1="1" x1="157.326" class="st2"/>
     <line id="svg_35" y2="257" x2="145.596" y1="1" x1="145.596" class="st2"/>
     <line id="svg_36" y2="257" x2="133.865" y1="1" x1="133.865" class="st2"/>
     <line id="svg_37" y2="257" x2="122.135" y1="1" x1="122.135" class="st2"/>
     <line id="svg_38" y2="257" x2="110.404" y1="1" x1="110.404" class="st2"/>
     <line id="svg_39" y2="257" x2="98.674" y1="1" x1="98.674" class="st2"/>
     <line id="svg_40" y2="257" x2="86.943" y1="1" x1="86.943" class="st2"/>
     <line id="svg_41" y2="257" x2="75.212" y1="1" x1="75.212" class="st2"/>
     <line id="svg_42" y2="257" x2="63.482" y1="1" x1="63.482" class="st2"/>
     <line id="svg_43" y2="257" x2="51.751" y1="1" x1="51.751" class="st2"/>
     <line id="svg_44" y2="257" x2="40.021" y1="1" x1="40.021" class="st2"/>
     <line id="svg_45" y2="257" x2="28.29" y1="1" x1="28.29" class="st2"/>
     <line id="svg_46" y2="257" x2="16.56" y1="1" x1="16.56" class="st2"/>
     <line id="svg_47" y2="257" x2="4.829" y1="1" x1="4.829" class="st2"/>
    </g>
   </g>
  </g>
  <g id="Layer_2">
   <g id="svg_48">
    <g id="svg_49">
     <g id="svg_50">
      <path id="svg_51" d="m225.142,26.899c-0.974,11.563 -13.025,13.389 -13.025,13.389c10.347,0.487 12.925,14.059 12.925,14.059c0.221,-9.677 13.321,-14.202 13.321,-14.202c-9.812,-0.587 -13.221,-13.246 -13.221,-13.246z" class="st5"/>
     </g>
    </g>
    <g id="svg_52">
     <g id="svg_53">
      <path id="svg_54" d="m238.454,38.648c-8.604,-0.516 -11.832,-12.025 -11.863,-12.142c-0.19,-0.702 -0.851,-1.164 -1.584,-1.102c-0.725,0.066 -1.298,0.642 -1.359,1.367c-0.859,10.216 -11.313,11.964 -11.754,12.032c-0.763,0.116 -1.313,0.791 -1.273,1.561c0.04,0.771 0.657,1.385 1.428,1.421c9.027,0.426 11.498,12.719 11.521,12.844c0.138,0.711 0.76,1.217 1.473,1.217c0.042,0 0.084,-0.002 0.126,-0.005c0.765,-0.064 1.357,-0.693 1.375,-1.46c0.193,-8.509 12.191,-12.777 12.313,-12.819c0.676,-0.234 1.092,-0.914 0.994,-1.622s-0.683,-1.249 -1.397,-1.292zm-13.566,10.345c-1.356,-3.13 -3.709,-6.906 -7.587,-8.876c2.931,-1.404 6.409,-3.913 8.202,-8.273c1.551,3.071 4.2,6.881 8.334,8.723c-3.008,1.639 -6.923,4.405 -8.949,8.426z" class="st3"/>
     </g>
    </g>
    <g id="svg_55">
     <g id="svg_56">
      <path id="svg_57" d="m203.443,43.879c-0.689,8.179 -9.212,9.471 -9.212,9.471c7.318,0.344 9.142,9.944 9.142,9.944c0.156,-6.845 9.422,-10.046 9.422,-10.046c-6.941,-0.415 -9.352,-9.369 -9.352,-9.369z" class="st5"/>
     </g>
    </g>
    <g id="svg_58">
     <g id="svg_59">
      <path id="svg_60" d="m212.885,51.752c-5.767,-0.346 -7.972,-8.187 -7.993,-8.266c-0.19,-0.702 -0.859,-1.166 -1.582,-1.102c-0.726,0.065 -1.3,0.643 -1.361,1.368c-0.578,6.871 -7.646,8.066 -7.941,8.113c-0.763,0.116 -1.313,0.791 -1.273,1.561c0.04,0.771 0.657,1.385 1.428,1.421c6.034,0.284 7.723,8.645 7.738,8.727c0.136,0.713 0.759,1.22 1.473,1.22c0.041,0 0.083,-0.002 0.125,-0.005c0.765,-0.063 1.358,-0.693 1.376,-1.461c0.13,-5.709 8.331,-8.633 8.411,-8.661c0.677,-0.233 1.094,-0.913 0.997,-1.622c-0.099,-0.709 -0.684,-1.25 -1.398,-1.293zm-9.585,6.794c-0.924,-1.885 -2.34,-3.946 -4.446,-5.279c1.855,-1.041 3.697,-2.63 4.87,-4.916c1.058,1.873 2.654,3.954 4.941,5.224c-1.85,1.1 -3.989,2.738 -5.365,4.971z" class="st3"/>
     </g>
    </g>
    <g id="svg_61">
     <g id="svg_62">
      <path id="svg_63" d="m203.443,17.222c-0.689,8.179 -9.212,9.47 -9.212,9.47c7.318,0.344 9.142,9.944 9.142,9.944c0.156,-6.845 9.422,-10.045 9.422,-10.045c-6.941,-0.415 -9.352,-9.369 -9.352,-9.369z" class="st5"/>
     </g>
    </g>
    <g id="svg_64">
     <g id="svg_65">
      <path id="svg_66" d="m212.885,25.094c-5.767,-0.345 -7.972,-8.186 -7.993,-8.265c-0.19,-0.702 -0.859,-1.165 -1.582,-1.102c-0.726,0.065 -1.3,0.643 -1.361,1.368c-0.578,6.871 -7.646,8.066 -7.941,8.113c-0.763,0.116 -1.313,0.791 -1.273,1.561c0.04,0.771 0.657,1.385 1.428,1.421c6.034,0.284 7.723,8.645 7.738,8.727c0.136,0.713 0.759,1.22 1.473,1.22c0.041,0 0.083,-0.002 0.125,-0.005c0.765,-0.063 1.358,-0.693 1.376,-1.461c0.13,-5.709 8.331,-8.634 8.412,-8.662c0.676,-0.234 1.093,-0.913 0.996,-1.622c-0.099,-0.709 -0.684,-1.251 -1.398,-1.293zm-9.585,6.795c-0.924,-1.886 -2.34,-3.946 -4.446,-5.279c1.855,-1.041 3.697,-2.63 4.87,-4.916c1.058,1.873 2.654,3.954 4.941,5.223c-1.85,1.1 -3.989,2.739 -5.365,4.972z" class="st3"/>
     </g>
    </g>
    <g id="svg_70">
     <g id="svg_71">
      <path id="svg_72" d="m208.349,196.255c-1.604,-1.609 -3.737,-2.497 -6.009,-2.5l-136.16,-0.158l0.191,-164.16c0.001,-0.829 -0.67,-1.501 -1.498,-1.502l-14,-0.017l-0.002,0c-0.397,0 -0.778,0.157 -1.06,0.438c-0.282,0.28 -0.44,0.662 -0.44,1.06l-0.059,50.608c-0.001,0.829 0.67,1.501 1.498,1.502l0.002,0c0.828,0 1.499,-0.671 1.5,-1.498l0.057,-49.108l11,0.013l-0.191,164.16c0,0.398 0.157,0.779 0.438,1.062c0.281,0.281 0.663,0.44 1.06,0.44l137.66,0.16c1.47,0.002 2.851,0.576 3.888,1.617s1.607,2.422 1.605,3.889c-0.002,1.472 -0.574,2.853 -1.613,3.89c-1.038,1.035 -2.417,1.604 -3.886,1.604l-0.007,0l-144.66,-0.169c-1.471,-0.002 -2.852,-0.574 -3.889,-1.613c-1.037,-1.039 -1.606,-2.422 -1.605,-3.893l0.127,-108.682c0.001,-0.829 -0.67,-1.501 -1.498,-1.502l-0.002,0c-0.828,0 -1.499,0.671 -1.5,1.498l-0.127,108.682c-0.002,2.272 0.878,4.409 2.482,6.016c1.602,1.605 3.737,2.492 6.009,2.494l144.66,0.169l0.011,0c2.269,0 4.4,-0.881 6.005,-2.481c1.605,-1.603 2.492,-3.736 2.494,-6.009c0.002,-2.269 -0.879,-4.403 -2.481,-6.01z" class="st3"/>
     </g>
    </g>
    <g id="svg_73">
     <g id="svg_74">
      <path id="svg_75" d="m76.235,208.985c-8.746,-0.01 -15.845,7.072 -15.855,15.818c-0.01,8.746 7.072,15.845 15.818,15.855c8.746,0.01 15.845,-7.072 15.855,-15.818c0.011,-8.746 -7.071,-15.845 -15.818,-15.855z" class="st6"/>
     </g>
    </g>
    <g id="svg_76">
     <g id="svg_77">
      <path id="svg_78" d="m88.49,212.577c-3.271,-3.278 -7.622,-5.087 -12.252,-5.092l-0.022,0c-4.622,0 -8.97,1.798 -12.243,5.063c-3.278,3.271 -5.087,7.622 -5.092,12.253c-0.011,9.56 7.757,17.346 17.316,17.357l0.019,0c9.55,0 17.326,-7.765 17.337,-17.316c0.006,-4.631 -1.793,-8.987 -5.063,-12.265zm-12.274,26.581l-0.016,0c-7.905,-0.01 -14.329,-6.449 -14.32,-14.354c0.004,-3.829 1.5,-7.428 4.211,-10.133c2.707,-2.7 6.301,-4.187 10.125,-4.187l0.018,0c3.829,0.004 7.427,1.5 10.132,4.211c2.705,2.711 4.191,6.313 4.187,10.142c-0.009,7.9 -6.439,14.321 -14.337,14.321z" class="st3"/>
     </g>
    </g>
    <g id="svg_79">
     <g id="svg_80">
      <ellipse id="svg_81" ry="6.479" rx="6.479" cy="225.898271" cx="73.386632" class="st12" transform="matrix(0.0831,-0.9965,0.9965,0.0831,-154.9992,279.1767) "/>
     </g>
    </g>
    <g id="svg_82">
     <g id="svg_83">
      <path id="svg_84" d="m81.865,219.187c-1.505,-1.509 -3.508,-2.342 -5.639,-2.344l-0.009,0c-4.395,0 -7.974,3.573 -7.979,7.97c-0.003,2.131 0.825,4.136 2.331,5.644c1.505,1.509 3.508,2.342 5.639,2.344l0.011,0c2.127,0 4.127,-0.827 5.633,-2.33c1.509,-1.505 2.341,-3.508 2.343,-5.639c0.003,-2.132 -0.824,-4.137 -2.33,-5.645zm-2.132,9.159c-0.939,0.938 -2.188,1.454 -3.515,1.454l-0.007,0c-1.33,-0.001 -2.579,-0.521 -3.518,-1.462c-0.939,-0.941 -1.456,-2.192 -1.454,-3.521c0.003,-2.744 2.236,-4.974 4.979,-4.974l0.006,0c1.33,0.001 2.579,0.521 3.518,1.462c0.94,0.941 1.456,2.192 1.454,3.522c-0.002,1.33 -0.521,2.58 -1.463,3.519z" class="st3"/>
     </g>
    </g>
    <g id="svg_85">
     <g id="svg_86">
      <path id="svg_87" d="m179.277,209.105c-8.746,-0.01 -15.845,7.072 -15.855,15.818c-0.01,8.746 7.072,15.845 15.818,15.855c8.746,0.01 15.845,-7.072 15.855,-15.818s-7.072,-15.845 -15.818,-15.855z" class="st6"/>
     </g>
    </g>
    <g id="svg_88">
     <g id="svg_89">
      <path id="svg_90" d="m191.531,212.697c-3.271,-3.278 -7.622,-5.087 -12.253,-5.092l-0.022,0c-4.622,0 -8.969,1.798 -12.242,5.063c-3.278,3.271 -5.087,7.622 -5.092,12.253c-0.012,9.56 7.756,17.346 17.315,17.357l0.02,0c9.551,-0.001 17.327,-7.765 17.338,-17.316c0.005,-4.631 -1.793,-8.986 -5.064,-12.265zm-12.273,26.581l-0.017,0c-7.905,-0.01 -14.329,-6.448 -14.319,-14.354c0.004,-3.829 1.5,-7.428 4.211,-10.133c2.706,-2.7 6.301,-4.187 10.124,-4.187l0.018,0c3.83,0.004 7.429,1.5 10.133,4.211c2.705,2.71 4.191,6.313 4.188,10.142c-0.01,7.9 -6.44,14.321 -14.338,14.321z" class="st3"/>
     </g>
    </g>
    <g id="svg_91">
     <g id="svg_92">
      <path id="svg_93" d="m179.266,218.463c-3.578,-0.004 -6.482,2.893 -6.486,6.471s2.893,6.482 6.471,6.486c3.578,0.004 6.482,-2.893 6.486,-6.471c0.004,-3.578 -2.893,-6.482 -6.471,-6.486z" class="st12"/>
     </g>
    </g>
    <g id="svg_94">
     <g id="svg_95">
      <path id="svg_96" d="m184.906,219.307c-1.505,-1.509 -3.508,-2.342 -5.639,-2.344l-0.009,0c-4.395,0 -7.974,3.573 -7.979,7.97c-0.002,2.131 0.825,4.136 2.331,5.645c1.505,1.508 3.508,2.341 5.639,2.343l0.011,0c2.127,0 4.128,-0.827 5.634,-2.33c1.509,-1.505 2.341,-3.508 2.343,-5.639c0.002,-2.132 -0.825,-4.137 -2.331,-5.645zm-2.132,9.16c-0.939,0.938 -2.188,1.453 -3.515,1.453l-0.007,0c-1.33,-0.001 -2.58,-0.521 -3.52,-1.462c-0.938,-0.941 -1.455,-2.192 -1.454,-3.521c0.004,-2.744 2.236,-4.974 4.979,-4.974l0.005,0c1.33,0.001 2.58,0.521 3.519,1.462c0.939,0.941 1.456,2.192 1.454,3.522c0,1.33 -0.519,2.58 -1.461,3.52z" class="st3"/>
     </g>
    </g>
    <g id="svg_97">
     <g id="svg_98">
      <path id="svg_99" d="m26.171,17.391c-3.314,-0.004 -6.003,2.679 -6.007,5.993c-0.004,3.313 2.679,6.003 5.993,6.007l38.75,0.045l0.014,-12l-38.75,-0.045z" class="st6"/>
     </g>
    </g>
    <g id="svg_100">
     <g id="svg_101">
      <path id="svg_102" d="m65.983,16.377c-0.281,-0.281 -0.663,-0.44 -1.06,-0.44l-38.75,-0.045l-0.009,0c-2,0 -3.881,0.777 -5.296,2.19c-1.419,1.415 -2.201,3.297 -2.203,5.301c-0.003,2.004 0.775,3.888 2.19,5.306c1.415,1.418 3.297,2.201 5.301,2.203l38.75,0.045l0.002,0c0.828,0 1.499,-0.671 1.5,-1.498l0.014,-12c0,-0.399 -0.158,-0.78 -0.439,-1.062zm-2.574,11.558l-37.25,-0.043c-1.202,-0.001 -2.332,-0.471 -3.181,-1.321c-0.849,-0.852 -1.316,-1.981 -1.314,-3.184s0.471,-2.332 1.322,-3.181c0.85,-0.848 1.978,-1.314 3.178,-1.314l0.005,0l37.25,0.043l-0.01,9z" class="st3"/>
     </g>
    </g>
    <g id="svg_109">
     <g id="svg_110">
      <path id="svg_111" d="m134.199,148.121l-57.207,0c-0.829,0 -1.5,0.672 -1.5,1.5l0,43.204c0,2.097 1.706,3.802 3.802,3.802l52.604,0c2.097,0 3.802,-1.705 3.802,-3.802l0,-43.204c-0.001,-0.828 -0.673,-1.5 -1.501,-1.5zm-1.5,44.704c0,0.442 -0.359,0.802 -0.802,0.802l-52.603,0c-0.442,0 -0.802,-0.359 -0.802,-0.802l0,-41.704l54.207,0l0,41.704z" class="st3"/>
     </g>
    </g>
    <g id="svg_115">
     <g id="svg_116">
      <path id="svg_117" d="m136.764,138.704l-61.36,0c-1.967,0 -3.568,1.601 -3.568,3.568l0,5.281c0,1.967 1.601,3.567 3.568,3.567l61.36,0c1.967,0 3.567,-1.601 3.567,-3.567l0,-5.281c0,-1.967 -1.601,-3.568 -3.567,-3.568zm0.567,8.85c0,0.313 -0.255,0.567 -0.567,0.567l-61.36,0c-0.313,0 -0.568,-0.255 -0.568,-0.567l0,-5.281c0,-0.313 0.255,-0.568 0.568,-0.568l61.36,0c0.313,0 0.567,0.255 0.567,0.568l0,5.281z" class="st3"/>
     </g>
    </g>
    <g id="svg_118">
     <g id="svg_119">
      <rect id="svg_120" height="9.417" width="21.905" class="st5" y="140.204" x="95.424"/>
     </g>
    </g>
    <g id="svg_121">
     <g id="svg_122">
      <path id="svg_123" d="m117.33,138.704l-21.906,0c-0.829,0 -1.5,0.672 -1.5,1.5l0,9.417c0,0.828 0.671,1.5 1.5,1.5l21.905,0c0.829,0 1.5,-0.672 1.5,-1.5l0,-9.417c0.001,-0.828 -0.671,-1.5 -1.499,-1.5zm-1.5,9.417l-18.906,0l0,-6.417l18.905,0l0,6.417l0.001,0z" class="st3"/>
     </g>
    </g>
    <g id="svg_124">
     <g id="svg_125">
      <polygon id="svg_126" points="95.42400360107422,149.6269989013672 95.42400360107422,164.14100646972656 102.06900024414062,159.44200134277344 104.32099914550781,164.14100646972656 107.01300048828125,161.69400024414062 110.14600372314453,164.14100646972656 113.572998046875,161.4239959716797 117.33000183105469,164.14100646972656 117.33000183105469,149.6269989013672 " class="st5"/>
     </g>
    </g>
    <g id="svg_127">
     <g id="svg_128">
      <path id="svg_129" d="m117.33,148.127l-21.906,0c-0.829,0 -1.5,0.672 -1.5,1.5l0,14.514c0,0.561 0.313,1.074 0.811,1.332c0.497,0.258 1.099,0.217 1.555,-0.107l5.194,-3.673l1.484,3.097c0.205,0.428 0.6,0.732 1.065,0.823c0.096,0.02 0.192,0.028 0.288,0.028c0.37,0 0.73,-0.137 1.009,-0.39l1.757,-1.597l2.136,1.668c0.546,0.428 1.312,0.424 1.855,-0.006l2.536,-2.011l2.836,2.051c0.456,0.329 1.06,0.375 1.561,0.12c0.502,-0.257 0.817,-0.772 0.817,-1.336l0,-14.514c0.002,-0.827 -0.67,-1.499 -1.498,-1.499zm-1.5,13.078l-1.378,-0.996c-0.543,-0.392 -1.284,-0.377 -1.811,0.04l-2.501,1.982l-2.203,-1.72c-0.272,-0.213 -0.598,-0.318 -0.923,-0.318c-0.362,0 -0.724,0.131 -1.009,0.39l-1.202,1.093l-1.381,-2.882c-0.191,-0.398 -0.548,-0.692 -0.975,-0.804c-0.428,-0.11 -0.883,-0.027 -1.243,0.228l-4.279,3.025l0,-10.116l18.905,0l0,10.078z" class="st3"/>
     </g>
    </g>
    <g id="svg_139">
     <g id="svg_140">
      <path id="svg_141" d="m134.199,93.121l-57.207,0c-0.829,0 -1.5,0.672 -1.5,1.5l0,43.204c0,2.097 1.706,3.802 3.802,3.802l52.604,0c2.097,0 3.802,-1.705 3.802,-3.802l0,-43.204c-0.001,-0.828 -0.673,-1.5 -1.501,-1.5zm-1.5,44.704c0,0.442 -0.359,0.802 -0.802,0.802l-52.603,0c-0.442,0 -0.802,-0.359 -0.802,-0.802l0,-41.704l54.207,0l0,41.704z" class="st3"/>
     </g>
    </g>
    <g id="svg_145">
     <g id="svg_146">
      <path id="svg_147" d="m137.764,84.704l-61.36,0c-1.967,0 -3.568,1.601 -3.568,3.568l0,5.281c0,1.967 1.601,3.567 3.568,3.567l61.36,0c1.967,0 3.567,-1.601 3.567,-3.567l0,-5.281c0,-1.967 -1.601,-3.568 -3.567,-3.568zm0.567,8.85c0,0.313 -0.255,0.567 -0.567,0.567l-61.36,0c-0.313,0 -0.568,-0.255 -0.568,-0.567l0,-5.281c0,-0.313 0.255,-0.568 0.568,-0.568l61.36,0c0.313,0 0.567,0.255 0.567,0.568l0,5.281z" class="st3"/>
     </g>
    </g>
    <g id="svg_148">
     <g id="svg_149">
      <rect id="svg_150" height="9.417" width="21.905" class="st5" y="85.204" x="95.424"/>
     </g>
    </g>
    <g id="svg_151">
     <g id="svg_152">
      <path id="svg_153" d="m117.33,83.704l-21.906,0c-0.829,0 -1.5,0.672 -1.5,1.5l0,9.417c0,0.828 0.671,1.5 1.5,1.5l21.905,0c0.829,0 1.5,-0.672 1.5,-1.5l0,-9.417c0.001,-0.828 -0.671,-1.5 -1.499,-1.5zm-1.5,9.417l-18.906,0l0,-6.417l18.905,0l0,6.417l0.001,0z" class="st3"/>
     </g>
    </g>
    <g id="svg_154">
     <g id="svg_155">
      <polygon id="svg_156" points="95.42400360107422,94.62699890136719 95.42400360107422,109.14099884033203 102.06900024414062,104.44200134277344 104.32099914550781,109.14099884033203 107.01300048828125,106.69400024414062 110.14600372314453,109.14099884033203 113.572998046875,106.42400360107422 117.33000183105469,109.14099884033203 117.33000183105469,94.62699890136719 " class="st5"/>
     </g>
    </g>
    <g id="svg_157">
     <g id="svg_158">
      <path id="svg_159" d="m117.33,93.127l-21.906,0c-0.829,0 -1.5,0.672 -1.5,1.5l0,14.514c0,0.561 0.313,1.074 0.811,1.332c0.497,0.258 1.099,0.217 1.555,-0.107l5.194,-3.673l1.484,3.097c0.205,0.428 0.6,0.732 1.065,0.823c0.096,0.02 0.192,0.028 0.288,0.028c0.37,0 0.73,-0.137 1.009,-0.39l1.757,-1.597l2.136,1.668c0.546,0.428 1.312,0.424 1.855,-0.006l2.536,-2.011l2.836,2.051c0.456,0.33 1.06,0.374 1.561,0.12c0.502,-0.257 0.817,-0.772 0.817,-1.336l0,-14.513c0.002,-0.828 -0.67,-1.5 -1.498,-1.5zm-1.5,13.078l-1.378,-0.996c-0.543,-0.393 -1.284,-0.376 -1.811,0.04l-2.501,1.982l-2.203,-1.72c-0.272,-0.213 -0.598,-0.318 -0.923,-0.318c-0.362,0 -0.724,0.131 -1.009,0.39l-1.202,1.093l-1.381,-2.882c-0.191,-0.398 -0.548,-0.692 -0.975,-0.804c-0.428,-0.111 -0.883,-0.027 -1.243,0.228l-4.279,3.025l0,-10.116l18.905,0l0,10.078z" class="st3"/>
     </g>
    </g>
    <g id="svg_169">
     <g id="svg_170">
      <path id="svg_171" d="m200.199,148.121l-57.207,0c-0.828,0 -1.5,0.672 -1.5,1.5l0,43.204c0,2.097 1.705,3.802 3.802,3.802l52.604,0c2.097,0 3.802,-1.705 3.802,-3.802l0,-43.204c-0.001,-0.828 -0.673,-1.5 -1.501,-1.5zm-1.5,44.704c0,0.442 -0.359,0.802 -0.802,0.802l-52.604,0c-0.442,0 -0.802,-0.359 -0.802,-0.802l0,-41.704l54.207,0l0,41.704l0.001,0z" class="st3"/>
     </g>
    </g>
    <g id="svg_175">
     <g id="svg_176">
      <path id="svg_177" d="m202.764,138.704l-61.36,0c-1.967,0 -3.567,1.601 -3.567,3.568l0,5.281c0,1.967 1.601,3.567 3.567,3.567l61.36,0c1.967,0 3.567,-1.601 3.567,-3.567l0,-5.281c0,-1.967 -1.601,-3.568 -3.567,-3.568zm0.567,8.85c0,0.313 -0.255,0.567 -0.567,0.567l-61.36,0c-0.313,0 -0.567,-0.255 -0.567,-0.567l0,-5.281c0,-0.313 0.255,-0.568 0.567,-0.568l61.36,0c0.313,0 0.567,0.255 0.567,0.568l0,5.281z" class="st3"/>
     </g>
    </g>
    <g id="svg_178">
     <g id="svg_179">
      <rect id="svg_180" height="9.417" width="21.905" class="st5" y="140.204" x="161.424"/>
     </g>
    </g>
    <g id="svg_181">
     <g id="svg_182">
      <path id="svg_183" d="m183.33,138.704l-21.905,0c-0.828,0 -1.5,0.672 -1.5,1.5l0,9.417c0,0.828 0.672,1.5 1.5,1.5l21.905,0c0.828,0 1.5,-0.672 1.5,-1.5l0,-9.417c0,-0.828 -0.672,-1.5 -1.5,-1.5zm-1.5,9.417l-18.905,0l0,-6.417l18.905,0l0,6.417z" class="st3"/>
     </g>
    </g>
    <g id="svg_184">
     <g id="svg_185">
      <polygon id="svg_186" points="161.4239959716797,149.6269989013672 161.4239959716797,164.14100646972656 168.07000732421875,159.44200134277344 170.3209991455078,164.14100646972656 173.01300048828125,161.69400024414062 176.14599609375,164.14100646972656 179.572998046875,161.4239959716797 183.3300018310547,164.14100646972656 183.3300018310547,149.6269989013672 " class="st5"/>
     </g>
    </g>
    <g id="svg_187">
     <g id="svg_188">
      <path id="svg_189" d="m183.33,148.127l-21.905,0c-0.828,0 -1.5,0.672 -1.5,1.5l0,14.514c0,0.561 0.313,1.074 0.811,1.332c0.497,0.258 1.099,0.218 1.556,-0.107l5.193,-3.672l1.484,3.096c0.205,0.428 0.6,0.732 1.064,0.823c0.096,0.02 0.192,0.028 0.288,0.028c0.37,0 0.731,-0.137 1.009,-0.39l1.757,-1.597l2.136,1.668c0.546,0.428 1.313,0.424 1.855,-0.006l2.537,-2.011l2.836,2.051c0.457,0.331 1.059,0.374 1.562,0.12c0.502,-0.257 0.817,-0.772 0.817,-1.336l0,-14.514c0,-0.827 -0.672,-1.499 -1.5,-1.499zm-1.5,13.078l-1.378,-0.996c-0.545,-0.394 -1.283,-0.377 -1.811,0.04l-2.502,1.983l-2.202,-1.721c-0.273,-0.213 -0.599,-0.318 -0.924,-0.318c-0.362,0 -0.724,0.131 -1.009,0.39l-1.202,1.093l-1.381,-2.882c-0.19,-0.398 -0.548,-0.692 -0.976,-0.804c-0.426,-0.11 -0.883,-0.027 -1.243,0.228l-4.278,3.025l0,-10.116l18.905,0l0,10.078l0.001,0z" class="st3"/>
     </g>
    </g>
    <g id="svg_199">
     <g id="svg_200">
      <path id="svg_201" d="m233.224,101.562l-53.158,-21.141c-0.771,-0.307 -1.643,0.068 -1.948,0.839l-5.036,12.666l0,-0.001l-10.929,27.481c-0.376,0.943 -0.361,1.977 0.041,2.909c0.401,0.933 1.142,1.653 2.086,2.028l48.881,19.438c0.455,0.182 0.931,0.271 1.406,0.271c0.511,0 1.021,-0.104 1.503,-0.313c0.933,-0.401 1.653,-1.143 2.028,-2.086l15.965,-40.146c0.306,-0.768 -0.07,-1.64 -0.839,-1.945zm-17.913,40.985c-0.079,0.198 -0.231,0.354 -0.428,0.439c-0.194,0.085 -0.413,0.089 -0.613,0.009l-48.882,-19.438c-0.198,-0.079 -0.354,-0.231 -0.44,-0.428c-0.085,-0.197 -0.088,-0.415 -0.009,-0.613l10.929,-27.481l0,-0.001l4.482,-11.271l50.37,20.032l-15.409,38.752z" class="st3"/>
     </g>
    </g>
    <g id="svg_205">
     <g id="svg_206">
      <path id="svg_207" d="m241.044,95.661c-0.377,-0.875 -1.073,-1.551 -1.958,-1.902l-15.307,-6.088l-41.711,-16.587c-0.884,-0.353 -1.854,-0.34 -2.729,0.038c-0.876,0.377 -1.552,1.073 -1.903,1.958l-1.952,4.908c-0.727,1.827 0.169,3.906 1.996,4.633l57.018,22.675c0.427,0.17 0.873,0.255 1.319,0.255c0.479,0 0.958,-0.099 1.411,-0.294c0.875,-0.377 1.552,-1.072 1.903,-1.958l1.951,-4.907c0.353,-0.886 0.339,-1.856 -0.038,-2.731zm-2.749,1.622l-1.951,4.907c-0.116,0.291 -0.45,0.433 -0.737,0.318l-57.018,-22.675c-0.291,-0.116 -0.434,-0.447 -0.318,-0.737l1.952,-4.908c0.089,-0.222 0.303,-0.357 0.528,-0.357c0.07,0 0.141,0.013 0.209,0.04l57.018,22.675c0.189,0.076 0.276,0.223 0.312,0.303c0.033,0.081 0.08,0.244 0.005,0.434z" class="st3"/>
     </g>
    </g>
    <g id="svg_208">
     <g id="svg_209">
      <rect id="svg_210" height="21.905" width="9.417" class="st5" transform="matrix(0.3695,-0.9292,0.9292,0.3695,49.1105,246.9772) " y="78.574027" x="201.657789"/>
     </g>
    </g>
    <g id="svg_211">
     <g id="svg_212">
      <path id="svg_213" d="m221.027,86.577l-20.354,-8.095c-0.37,-0.146 -0.782,-0.14 -1.148,0.016c-0.365,0.158 -0.653,0.454 -0.8,0.823l-3.479,8.75c-0.307,0.771 0.069,1.643 0.839,1.948l20.354,8.095c0.179,0.071 0.366,0.106 0.555,0.106c0.202,0 0.404,-0.041 0.594,-0.122c0.365,-0.158 0.653,-0.454 0.8,-0.823l3.479,-8.75c0.306,-0.77 -0.07,-1.642 -0.84,-1.948zm-4.874,8.195l-17.566,-6.986l2.371,-5.962l17.566,6.986l-2.371,5.962z" class="st3"/>
     </g>
    </g>
    <g id="svg_214">
     <g id="svg_215">
      <polygon id="svg_216" points="196.63600158691406,88.63200378417969 191.2729949951172,102.11799621582031 199.1840057373047,100.20800018310547 199.5399932861328,105.40599822998047 202.9459991455078,104.12699890136719 204.9530029296875,107.55899810791016 209.14100646972656,106.30000305175781 211.6280059814453,110.21299743652344 216.99099731445312,96.72699737548828 " class="st5"/>
     </g>
    </g>
    <g id="svg_217">
     <g id="svg_218">
      <path id="svg_219" d="m218.369,96.133c-0.158,-0.365 -0.454,-0.653 -0.823,-0.8l-20.355,-8.095c-0.369,-0.146 -0.781,-0.141 -1.148,0.016c-0.365,0.158 -0.653,0.454 -0.8,0.823l-5.362,13.486c-0.207,0.521 -0.106,1.114 0.261,1.538c0.366,0.423 0.94,0.606 1.485,0.475l6.184,-1.494l0.234,3.427c0.032,0.473 0.286,0.902 0.685,1.159c0.398,0.256 0.895,0.31 1.339,0.143l2.223,-0.835l1.368,2.34c0.35,0.599 1.064,0.878 1.727,0.68l3.1,-0.931l1.878,2.953c0.276,0.436 0.756,0.695 1.266,0.695c0.047,0 0.094,-0.002 0.141,-0.007c0.561,-0.053 1.045,-0.415 1.253,-0.938l5.363,-13.486c0.144,-0.371 0.138,-0.784 -0.019,-1.149zm-7.051,10.798l-0.912,-1.435c-0.28,-0.441 -0.763,-0.695 -1.266,-0.695c-0.144,0 -0.289,0.021 -0.432,0.063l-3.057,0.918l-1.411,-2.412c-0.369,-0.631 -1.14,-0.903 -1.822,-0.647l-1.52,0.571l-0.219,-3.189c-0.029,-0.44 -0.253,-0.846 -0.609,-1.107c-0.356,-0.261 -0.806,-0.354 -1.239,-0.248l-5.094,1.23l3.737,-9.399l17.567,6.986l-3.723,9.364z" class="st3"/>
     </g>
    </g>
    <g id="svg_226">
     <g id="svg_227"/>
    </g>
    <g id="svg_229">
     <g id="svg_230">
      <path id="svg_231" d="m169.162,44.393l-55.746,-12.848c-0.388,-0.088 -0.795,-0.021 -1.132,0.19s-0.577,0.547 -0.667,0.935l-2.991,12.979c-0.186,0.808 0.318,1.612 1.125,1.799c0.806,0.187 1.613,-0.316 1.799,-1.125l2.654,-11.518l52.822,12.174l-9.365,40.638c-0.048,0.209 -0.175,0.387 -0.356,0.501c-0.181,0.113 -0.394,0.151 -0.604,0.101l-51.261,-11.813c-0.208,-0.048 -0.386,-0.174 -0.5,-0.355c-0.113,-0.182 -0.149,-0.396 -0.101,-0.605l3.402,-14.761c0.186,-0.808 -0.318,-1.612 -1.125,-1.799c-0.805,-0.187 -1.612,0.317 -1.799,1.125l-3.401,14.761c-0.228,0.989 -0.058,2.009 0.481,2.869c0.539,0.861 1.38,1.462 2.37,1.689l51.259,11.813c0.287,0.065 0.573,0.098 0.856,0.098c1.729,0 3.298,-1.191 3.704,-2.948l9.702,-42.101c0.185,-0.808 -0.318,-1.613 -1.126,-1.799z" class="st3"/>
     </g>
    </g>
    <g id="svg_235">
     <g id="svg_236">
      <path id="svg_237" d="m173.775,35.792l-59.794,-13.78c-1.916,-0.437 -3.835,0.76 -4.277,2.676l-1.186,5.146c-0.441,1.917 0.759,3.836 2.675,4.278l59.794,13.78c0.268,0.062 0.536,0.091 0.8,0.091c1.625,0 3.098,-1.118 3.477,-2.767l1.187,-5.147c0.441,-1.916 -0.76,-3.835 -2.676,-4.277zm-0.248,3.604l-1.186,5.147c-0.07,0.304 -0.373,0.495 -0.68,0.425l-59.793,-13.78c-0.305,-0.07 -0.496,-0.376 -0.426,-0.681l1.186,-5.146c0.06,-0.263 0.295,-0.44 0.554,-0.44c0.042,0 0.085,0.005 0.127,0.015l59.793,13.78c0.304,0.07 0.496,0.376 0.425,0.68z" class="st3"/>
     </g>
    </g>
    <g id="svg_238">
     <g id="svg_239">
      <rect id="svg_240" height="21.905" width="9.417" class="st5" transform="matrix(0.2246,-0.9745,0.9745,0.2246,76.007,163.5533) " y="25.239393" x="135.53775"/>
     </g>
    </g>
    <g id="svg_241">
     <g id="svg_242">
      <path id="svg_243" d="m154.838,31.428l-21.346,-4.919c-0.388,-0.088 -0.795,-0.021 -1.132,0.19c-0.338,0.211 -0.577,0.547 -0.667,0.935l-2.114,9.176c-0.186,0.808 0.318,1.612 1.125,1.799l21.346,4.92c0.111,0.025 0.225,0.038 0.337,0.038c0.279,0 0.555,-0.078 0.795,-0.229c0.338,-0.211 0.577,-0.547 0.667,-0.935l2.114,-9.177c0.185,-0.807 -0.317,-1.612 -1.125,-1.798zm-3.576,8.84l-18.422,-4.246l1.44,-6.252l18.422,4.245l-1.44,6.253z" class="st3"/>
     </g>
    </g>
    <g id="svg_244">
     <g id="svg_245">
      <polygon id="svg_246" points="131.03900146484375,37.15299987792969 127.77999877929688,51.29600143432617 135.30999755859375,48.20899963378906 136.44900512695312,53.29399871826172 139.6219940185547,51.51300048828125 142.12600708007812,54.60200119018555 146.0749969482422,52.7239990234375 149.12600708007812,56.21500015258789 152.38499450683594,42.071998596191406 " class="st5"/>
     </g>
    </g>
    <g id="svg_247">
     <g id="svg_248">
      <path id="svg_249" d="m152.722,40.61l-21.346,-4.92c-0.387,-0.088 -0.795,-0.021 -1.132,0.19c-0.337,0.211 -0.577,0.547 -0.667,0.935l-3.259,14.144c-0.125,0.546 0.063,1.117 0.491,1.48c0.428,0.363 1.023,0.457 1.54,0.244l5.887,-2.413l0.75,3.352c0.104,0.462 0.42,0.849 0.853,1.042c0.435,0.194 0.933,0.17 1.346,-0.062l2.069,-1.162l1.708,2.105c0.436,0.538 1.182,0.71 1.81,0.41l2.923,-1.39l2.303,2.636c0.289,0.33 0.703,0.513 1.13,0.513c0.121,0 0.244,-0.015 0.365,-0.045c0.546,-0.138 0.97,-0.569 1.097,-1.118l3.259,-14.143c0.183,-0.806 -0.32,-1.611 -1.127,-1.798zm-4.399,12.407l-1.118,-1.28c-0.292,-0.334 -0.707,-0.513 -1.131,-0.513c-0.217,0 -0.438,0.047 -0.643,0.146l-2.883,1.371l-1.761,-2.171c-0.459,-0.568 -1.262,-0.722 -1.899,-0.364l-1.415,0.794l-0.698,-3.119c-0.097,-0.431 -0.379,-0.798 -0.771,-1.002c-0.393,-0.206 -0.853,-0.226 -1.263,-0.058l-4.849,1.987l2.272,-9.857l18.422,4.246l-2.263,9.82z" class="st3"/>
     </g>
    </g>
    <g id="svg_250">
     <g id="svg_251"/>
    </g>
   </g>
  </g>
 </g>
</svg>